{
  "source": "C:\\Users\\Peter\\Desktop\\stuff\\MIUN\\quantitative_research\\video_compression\\videos\\BVI-HD\\BVI-HD_CDVL_videos\\ORIG\\TreeTrunk_1920x1080_50fps.mp4",
  "output": "C:\\Users\\Peter\\Desktop\\stuff\\MIUN\\quantitative_research\\video_compression\\compressed_videos\\BVI-HD\\h264\\2\\TreeTrunk_1920x1080_50fps_h264.mp4",
  "codec": "h264",
  "ok": "Input #0, mov,mp4,m4a,3gp,3g2,mj2, from 'C:\\Users\\Peter\\Desktop\\stuff\\MIUN\\quantitative_research\\video_compression\\videos\\BVI-HD\\BVI-HD_CDVL_videos\\ORIG\\TreeTrunk_1920x1080_50fps.mp4':\n  Metadata:\n    major_brand     : isom\n    minor_version   : 512\n    compatible_brands: isomiso2avc1mp41\n    encoder         : Lavf54.28.101\n  Duration: 00:00:05.00, start: 0.000000, bitrate: 622415 kb/s\n  Stream #0:0[0x1](und): Video: h264 (High 4:4:4 Predictive) (avc1 / 0x31637661), yuv420p(progressive), 1920x1080, 622410 kb/s, 50 fps, 50 tbr, 50 tbn (default)\n    Metadata:\n      handler_name    : VideoHandler\n      vendor_id       : [0][0][0][0]\n[out#0/mp4 @ 000002d22909f740] Codec AVOption b:a (set bitrate (in bits/s)) has not been used for any stream. The most likely reason is either wrong type (e.g. a video option with no video streams) or that it is a private option of some decoder which was not actually used for any stream.\nStream mapping:\n  Stream #0:0 -> #0:0 (h264 (native) -> h264 (libx264))\nPress [q] to stop, [?] for help\n[libx264 @ 000002d229cb0340] using cpu capabilities: MMX2 SSE2Fast SSSE3 SSE4.2 AVX FMA3 BMI2 AVX2\n[libx264 @ 000002d229cb0340] profile High, level 5.0, 4:2:0, 8-bit\n[libx264 @ 000002d229cb0340] 264 - core 165 r3222 b35605a - H.264/MPEG-4 AVC codec - Copyleft 2003-2025 - http://www.videolan.org/x264.html - options: cabac=1 ref=5 deblock=1:0:0 analyse=0x3:0x113 me=hex subme=8 psy=1 psy_rd=1.00:0.00 mixed_ref=1 me_range=16 chroma_me=1 trellis=2 8x8dct=1 cqm=0 deadzone=21,11 fast_pskip=1 chroma_qp_offset=-2 threads=18 lookahead_threads=3 sliced_threads=0 nr=0 decimate=1 interlaced=0 bluray_compat=0 constrained_intra=0 bframes=3 b_pyramid=2 b_adapt=1 b_bias=0 direct=3 weightb=1 open_gop=0 weightp=2 keyint=250 keyint_min=25 scenecut=40 intra_refresh=0 rc_lookahead=50 rc=cbr mbtree=1 bitrate=2000 ratetol=1.0 qcomp=0.60 qpmin=0 qpmax=69 qpstep=4 vbv_maxrate=2000 vbv_bufsize=2000 nal_hrd=none filler=0 ip_ratio=1.40 aq=1:1.00\nOutput #0, mp4, to 'C:\\Users\\Peter\\Desktop\\stuff\\MIUN\\quantitative_research\\video_compression\\compressed_videos\\BVI-HD\\h264\\2\\TreeTrunk_1920x1080_50fps_h264.mp4':\n  Metadata:\n    major_brand     : isom\n    minor_version   : 512\n    compatible_brands: isomiso2avc1mp41\n    encoder         : Lavf62.3.100\n  Stream #0:0(und): Video: h264 (avc1 / 0x31637661), yuv420p(tv, progressive), 1920x1080, q=2-31, 2000 kb/s, 50 fps, 12800 tbn (default)\n    Metadata:\n      encoder         : Lavc62.11.100 libx264\n      handler_name    : VideoHandler\n      vendor_id       : [0][0][0][0]\n    Side data:\n      cpb: bitrate max/min/avg: 2000000/0/2000000 buffer size: 2000000 vbv_delay: N/A\nframe=    0 fps=0.0 q=0.0 size=       0KiB time=N/A bitrate=N/A speed=N/A elapsed=0:00:00.51    \nframe=    0 fps=0.0 q=0.0 size=       0KiB time=N/A bitrate=N/A speed=N/A elapsed=0:00:01.13    \nframe=    0 fps=0.0 q=0.0 size=       0KiB time=N/A bitrate=N/A speed=N/A elapsed=0:00:01.69    \nframe=    0 fps=0.0 q=0.0 size=       0KiB time=N/A bitrate=N/A speed=N/A elapsed=0:00:02.31    \nframe=   37 fps= 12 q=42.0 size=       0KiB time=00:00:00.56 bitrate=   0.7kbits/s speed=0.184x elapsed=0:00:03.03    \nframe=   53 fps= 14 q=43.0 size=       0KiB time=00:00:01.02 bitrate=   0.4kbits/s speed=0.272x elapsed=0:00:03.74    \nframe=   77 fps= 18 q=49.0 size=     256KiB time=00:00:01.42 bitrate=1477.1kbits/s speed=0.326x elapsed=0:00:04.35    \nframe=   95 fps= 19 q=46.0 size=     256KiB time=00:00:01.80 bitrate=1165.3kbits/s speed=0.362x elapsed=0:00:04.97    \nframe=  117 fps= 21 q=45.0 size=     256KiB time=00:00:02.22 bitrate= 944.8kbits/s speed=0.398x elapsed=0:00:05.57    \nframe=  135 fps= 22 q=45.0 size=     256KiB time=00:00:02.66 bitrate= 788.5kbits/s speed=0.427x elapsed=0:00:06.23    \nframe=  156 fps= 23 q=50.0 size=     512KiB time=00:00:03.00 bitrate=1398.2kbits/s speed=0.443x elapsed=0:00:06.77    \nframe=  169 fps= 23 q=50.0 size=     512KiB time=00:00:03.34 bitrate=1255.9kbits/s speed=0.45x elapsed=0:00:07.42    \nframe=  197 fps= 25 q=51.0 size=     768KiB time=00:00:03.90 bitrate=1613.3kbits/s speed=0.492x elapsed=0:00:07.93    \nframe=  221 fps= 26 q=50.0 size=     768KiB time=00:00:04.38 bitrate=1436.5kbits/s speed=0.517x elapsed=0:00:08.46    \n[mp4 @ 000002d22909f840] Starting second pass: moving the moov atom to the beginning of the file\n[out#0/mp4 @ 000002d22909f740] video:1098KiB audio:0KiB subtitle:0KiB other streams:0KiB global headers:0KiB muxing overhead: 0.343791%\nframe=  250 fps= 28 q=-1.0 Lsize=    1102KiB time=00:00:04.96 bitrate=1820.4kbits/s speed=0.554x elapsed=0:00:08.96    \n[libx264 @ 000002d229cb0340] frame I:1     Avg QP:41.03  size: 66762\n[libx264 @ 000002d229cb0340] frame P:63    Avg QP:45.24  size: 13623\n[libx264 @ 000002d229cb0340] frame B:186   Avg QP:47.29  size:  1070\n[libx264 @ 000002d229cb0340] consecutive B-frames:  0.4%  0.8%  1.2% 97.6%\n[libx264 @ 000002d229cb0340] mb I  I16..4: 11.6% 74.3% 14.1%\n[libx264 @ 000002d229cb0340] mb P  I16..4:  0.5%  3.8%  0.0%  P16..4: 35.1%  4.6%  8.9%  0.0%  0.0%    skip:47.0%\n[libx264 @ 000002d229cb0340] mb B  I16..4:  0.0%  0.0%  0.0%  B16..8: 22.7%  0.1%  0.0%  direct: 0.0%  skip:77.2%  L0:48.1% L1:51.9% BI: 0.0%\n[libx264 @ 000002d229cb0340] 8x8 transform intra:84.1% inter:95.0%\n[libx264 @ 000002d229cb0340] direct mvs  spatial:94.6% temporal:5.4%\n[libx264 @ 000002d229cb0340] coded y,uvDC,uvAC intra: 62.1% 21.6% 1.0% inter: 3.6% 1.4% 0.0%\n[libx264 @ 000002d229cb0340] i16 v,h,dc,p: 21% 33%  7% 38%\n[libx264 @ 000002d229cb0340] i8 v,h,dc,ddl,ddr,vr,hd,vl,hu:  6%  2%  2% 13% 24% 15% 20%  8% 10%\n[libx264 @ 000002d229cb0340] i4 v,h,dc,ddl,ddr,vr,hd,vl,hu:  3%  1%  1% 17% 25% 15% 16%  9% 12%\n[libx264 @ 000002d229cb0340] i8c dc,h,v,p: 67% 25%  6%  2%\n[libx264 @ 000002d229cb0340] Weighted P-Frames: Y:0.0% UV:0.0%\n[libx264 @ 000002d229cb0340] ref P L0: 63.9%  3.2% 16.3%  8.2%  8.5%\n[libx264 @ 000002d229cb0340] ref B L0: 93.7%  6.1%  0.2%  0.0%\n[libx264 @ 000002d229cb0340] ref B L1: 98.6%  1.4%\n[libx264 @ 000002d229cb0340] kb/s:1798.48\n",
  "seconds": 9.662690877914429,
  "probe_out": {}
}